PathFileType	4	(X/Y/Z)	/Users/niels/Desktop/University/Third Semester/Perception and Action/Exam/Gymnastics Motion Tracking/Code for Gym Tracking/Analyzed Data/Webcam_Backflip/id2_2_trajectory_Sports2D/id2_2_trajectory_Sports2D_px_person00.trc
DataRate	CameraRate	NumFrames	NumMarkers	Units	OrigDataRate	OrigDataStartFrame	OrigNumFrames
29.714285714285715	29.714285714285715	12	22	m	29.714285714285715	13	105
Frame#	Time	Hip			RHip			RKnee			RAnkle			RBigToe			RSmallToe			RHeel			LHip			LKnee			LAnkle			LBigToe			LSmallToe			LHeel			Neck			Head			Nose			RShoulder			RElbow			RWrist			LShoulder			LElbow			LWrist		
		X1	Y1	Z1	X2	Y2	Z2	X3	Y3	Z3	X4	Y4	Z4	X5	Y5	Z5	X6	Y6	Z6	X7	Y7	Z7	X8	Y8	Z8	X9	Y9	Z9	X10	Y10	Z10	X11	Y11	Z11	X12	Y12	Z12	X13	Y13	Z13	X14	Y14	Z14	X15	Y15	Z15	X16	Y16	Z16	X17	Y17	Z17	X18	Y18	Z18	X19	Y19	Z19	X20	Y20	Z20	X21	Y21	Z21	X22	Y22	Z22
13	0.4375	0.9289844077268922	-0.6066180079041898	0.0	0.9283302412154516	-0.6003043481728988	0.0	0.947121709621313	-0.7260443326973891	0.0	0.9211263560794665	-0.8496795522678836	0.0	0.9676148607410539	-0.8728399997177009	0.0	0.9548511845997221	-0.8777015307122118	0.0	0.9090797762929156	-0.8683664413773142	0.0	0.9357238514219143	-0.5980701508966354	0.0	0.9449025423043254	-0.7248612190031932	0.0	0.9297233093872946	-0.8398413213614634	0.0	0.9710436812027081	-0.8640036128682184	0.0	0.9676921914702247	-0.858992100857933	0.0	0.918734620042365	-0.8572901548706842	0.0	0.9488334483533515	-0.4287829152211831	0.0	0.9764386054121631	-0.34368309773669514	0.0	0.9892531666429716	-0.39719152013388814	0.0	0.9432714116081558	-0.4453095055980864	0.0	1.0261730756068028	-0.4762175782271348	0.0	1.0985611747621615	-0.4649584062595942	0.0	0.9398253258777551	-0.4447222911865418	0.0	1.0127106025368626	-0.47662931351050236	0.0	1.0894908659396625	-0.4669334822617405	0.0
14	0.47115384615384615	0.928934848038338	-0.6157487051427999	0.0	0.9286322781864987	-0.6095104851303774	0.0	0.9468618640920985	-0.7343730532351229	0.0	0.9208254294548947	-0.8581961452795317	0.0	0.9657872610173659	-0.8799860134231435	0.0	0.9535861129310433	-0.8850833552865529	0.0	0.9086528371727786	-0.8766873792254479	0.0	0.9355479793652113	-0.6073541618822954	0.0	0.9446673615407861	-0.7330240024731588	0.0	0.9291499992253309	-0.8478430447872073	0.0	0.9704460985919756	-0.8707312977769655	0.0	0.9667652689716921	-0.8659974548491968	0.0	0.9178866552616884	-0.8655393250618991	0.0	0.9486291386143678	-0.437031350949317	0.0	0.9753925979418846	-0.35131711062349485	0.0	0.9889157236906003	-0.40461962901182913	0.0	0.9431096430542191	-0.45400478667495464	0.0	1.0259422151871722	-0.4837215785615049	0.0	1.098476450130224	-0.47132907552445025	0.0	0.9386779231600212	-0.45327153862405273	0.0	1.0117925784089166	-0.4847538285302292	0.0	1.0894658098145253	-0.4739635922007854	0.0
15	0.5048076923076923	0.9290819067838219	-0.625177589017997	0.0	0.9290834248916697	-0.6192222416667517	0.0	0.9461633867209884	-0.743181693711552	0.0	0.9205822860440667	-0.8672060127427924	0.0	0.9637234202159147	-0.8876006529152249	0.0	0.951980612494056	-0.8931769082921357	0.0	0.9082808283563879	-0.8855383578528024	0.0	0.9355620139937747	-0.6170376081381299	0.0	0.9441988417619722	-0.7417627128424169	0.0	0.9285354647141563	-0.8564277337190153	0.0	0.9697628556507665	-0.8778426921315624	0.0	0.9657433398165568	-0.8734580979719653	0.0	0.9170614902646302	-0.8744275750625117	0.0	0.9482163491324094	-0.44584534690705163	0.0	0.9743045193185467	-0.3597177493992428	0.0	0.9883500035650188	-0.41281904652098667	0.0	0.9428314589776841	-0.4633185685300277	0.0	1.0256054543258588	-0.4917467150360132	0.0	1.0981652708475693	-0.47802673211190677	0.0	0.9376154901700507	-0.4623600288313359	0.0	1.0108024113316996	-0.4935279956149916	0.0	1.0891321269858616	-0.4813222772584735	0.0
16	0.5384615384615384	0.9293489731185333	-0.6339759238359091	0.0	0.9295787834209317	-0.6284504676351901	0.0	0.9449900378636588	-0.75172423850728	0.0	0.9204385939721552	-0.8758922159435595	0.0	0.9617994876389184	-0.895018908440415	0.0	0.9504395688013917	-0.9012351334517588	0.0	0.9080736351273727	-0.8940076262871413	0.0	0.9356939228144597	-0.6262010847303486	0.0	0.94348057472094	-0.7503699703779486	0.0	0.9280078607251576	-0.8648898476654464	0.0	0.9692689084175444	-0.8846237884242096	0.0	0.9648458033891432	-0.8806272100664949	0.0	0.9163761482707178	-0.8832542860755416	0.0	0.9476035877585562	-0.4543552134857802	0.0	0.9731829070479379	-0.36810213047528534	0.0	0.9876126027008033	-0.42109280760069717	0.0	0.942428964724826	-0.47237299774713665	0.0	1.025241329259865	-0.4995104257820708	0.0	1.0976575491090867	-0.4844364837832175	0.0	0.9367716248523902	-0.47117910946615055	0.0	1.0099838088658062	-0.5020464669452493	0.0	1.0885151826328345	-0.4882372002349076	0.0
17	0.5721153846153846	0.929630870795651	-0.641354322927819	0.0	0.9300099760869793	-0.6362717592531658	0.0	0.9434237816016393	-0.7591964686526698	0.0	0.9203839148077931	-0.8834604364572433	0.0	0.9603296819941383	-0.9016039776461321	0.0	0.9492937636719413	-0.9084634798939414	0.0	0.9080690587349431	-0.9012733273582059	0.0	0.9358300550034696	-0.6340029789538304	0.0	0.9425261120300059	-0.7580173610484776	0.0	0.9276334823788815	-0.8724334494719521	0.0	0.9691059713877925	-0.8904279106674966	0.0	0.9642342955486992	-0.8867854363280446	0.0	0.9159098719644593	-0.8912110510310117	0.0	0.9468511405925991	-0.46172920714291565	0.0	0.9720266977249218	-0.3756233847081513	0.0	0.9867895765133471	-0.42864252049055235	0.0	0.9418904453513002	-0.48032996383568555	0.0	1.0249437548517037	-0.5062439588208032	0.0	1.096997582710667	-0.48995064279606115	0.0	0.9361682206775147	-0.4789602906639052	0.0	1.0095350415439863	-0.5094045228532269	0.0	1.0877127079836968	-0.4939784490076899	0.0
18	0.6057692307692307	0.9298665696629401	-0.6466737255340063	0.0	0.9303538852659412	-0.641908222293315	0.0	0.9416517265989588	-0.764795235902885	0.0	0.9203450449073486	-0.889169094214264	0.0	0.959530757455211	-0.9067009252935095	0.0	0.9487553879986605	-0.9140600688973595	0.0	0.9081955081214679	-0.9066675927732518	0.0	0.9358725146260739	-0.6397079667382757	0.0	0.9413669925449735	-0.7638244337192811	0.0	0.9274095762891987	-0.8782272738396364	0.0	0.969231236170953	-0.8946897568505486	0.0	0.9639755876240612	-0.8913066898836	0.0	0.9156897548793901	-0.8974047240271243	0.0	0.9460533449387061	-0.46726078462614257	0.0	0.9708579369396741	-0.38147244547952786	0.0	0.985966835071488	-0.43463107617106833	0.0	0.941247522481978	-0.48643317028779515	0.0	1.024770328204942	-0.511241990418614	0.0	1.0962738697963288	-0.4939678633421838	0.0	0.9357455973260326	-0.4849973312182436	0.0	1.0095206612067176	-0.5148127984814702	0.0	1.086885650180251	-0.49794658641324896	0.0
19	0.6394230769230769	0.9300301028899308	-0.6494717514056405	0.0	0.9306712361966522	-0.6448274455806225	0.0	0.9398826130508092	-0.7678806306555397	0.0	0.9202149728813176	-0.8924086777408496	0.0	0.9594840579685222	-0.9096634330273552	0.0	0.9488983776187039	-0.9172984616225694	0.0	0.9083314775331662	-0.9096984600686914	0.0	0.9357674530077574	-0.6427718185140119	0.0	0.9400631675724996	-0.7670728029911559	0.0	0.9272756431528877	-0.8815524276691785	0.0	0.9694557681278305	-0.896951016530573	0.0	0.9640266570154666	-0.8937080572370832	0.0	0.915660670551423	-0.9010363358497968	0.0	0.945300612801066	-0.47046096358033607	0.0	0.9697190019083154	-0.384967576557002	0.0	0.9852319891763317	-0.4383110460664778	0.0	0.9406076210781688	-0.49004517855338925	0.0	1.0247197274114617	-0.5139365402364316	0.0	1.095611919979105	-0.49592003502753385	0.0	0.935423221553099	-0.4886558703679956	0.0	1.009844141705061	-0.5176574443727116	0.0	1.0861733326978074	-0.49967229267284496	0.0
20	0.673076923076923	0.930098039242865	-0.6495000887363547	0.0	0.931010001072078	-0.6447995364082317	0.0	0.9383010461465717	-0.7680994013609675	0.0	0.9199210221910176	-0.89281211408211	0.0	0.9600836101338699	-0.9100246185529909	0.0	0.9496092946313169	-0.9177088044378342	0.0	0.9083802536254236	-0.9100649193745827	0.0	0.9354936803301637	-0.6429115004160442	0.0	0.9387307651801556	-0.7673948446805645	0.0	0.9271355555325609	-0.8819730918153085	0.0	0.9695406976201261	-0.8969730078441179	0.0	0.964252621915637	-0.8937468589581034	0.0	0.9156829365792776	-0.9016231102507164	0.0	0.9446643888643188	-0.47110815779126775	0.0	0.9686592530318628	-0.38566917617346813	0.0	0.9846482018508126	-0.4391786636710283	0.0	0.9401053095441466	-0.4907586134734751	0.0	1.0247500420206879	-0.5139824470695985	0.0	1.0951201740485739	-0.4953735626451552	0.0	0.9351537538633005	-0.4894816202576016	0.0	1.0103422939977997	-0.5175447944049807	0.0	1.0856258156770304	-0.4988147562939496	0.0
21	0.7067307692307692	0.9300560224168709	-0.6467499405909335	0.0	0.9313404078966868	-0.6418780322852328	0.0	0.9370719323082664	-0.7654377174299409	0.0	0.9194812980401998	-0.8903510683501041	0.0	0.9610669162547554	-0.9077226534793817	0.0	0.9506187680124301	-0.9152514801044728	0.0	0.9083003120530934	-0.907729076912006	0.0	0.9350610554524988	-0.6401260367020305	0.0	0.9375263719655174	-0.7648209426753567	0.0	0.926895419931438	-0.8794921924194067	0.0	0.9693264989141473	-0.8948494420706796	0.0	0.9644852860739698	-0.8915192695218236	0.0	0.9156083253541827	-0.899136581636458	0.0	0.9441992884518475	-0.46922766965117213	0.0	0.9677306361062328	-0.38349928481816903	0.0	0.984220922618396	-0.43710227744468877	0.0	0.9398382825067929	-0.4885144784683065	0.0	1.0248046049353021	-0.5112928328248696	0.0	1.0948436837593645	-0.49214819463401954	0.0	0.9349620707025239	-0.48733762054349283	0.0	1.01091064404832	-0.5143572827327968	0.0	1.0852362943090763	-0.495227228897314	0.0
22	0.7403846153846153	0.9298949541099654	-0.6414711105997086	0.0	0.9315578307965275	-0.636376332215575	0.0	0.9363239340536406	-0.7602445228876931	0.0	0.9190048847167365	-0.8853751157679758	0.0	0.9621242912719948	-0.9031576669529916	0.0	0.9516101727578327	-0.9103331385521022	0.0	0.9081233514466625	-0.9030056212241112	0.0	0.9344998087166739	-0.6347062078994914	0.0	0.9366043731179959	-0.7597460857571379	0.0	0.9265254311068932	-0.8745666129695524	0.0	0.9688185098370351	-0.8909497430488005	0.0	0.9646113932039286	-0.8874059244303644	0.0	0.9154082652891435	-0.8939952050635767	0.0	0.9439407480223423	-0.46504267471490573	0.0	0.9670192403419934	-0.37876191463055736	0.0	0.9839320114197144	-0.43237421449935715	0.0	0.9398452042318507	-0.48360812919381574	0.0	1.0248595641870264	-0.5060343541240754	0.0	1.094794354608433	-0.4863646148443025	0.0	0.9349325037350397	-0.4824537212643562	0.0	1.0115512335524313	-0.5083091355840064	0.0	1.085037399473187	-0.48903238395020365	0.0
23	0.7740384615384615	0.9295859526206476	-0.634139634071527	0.0	0.9315090762910105	-0.6288378805712679	0.0	0.9361285485214801	-0.7531739250022672	0.0	0.9186280497077042	-0.878522080033685	0.0	0.9630323383261719	-0.8969760507050808	0.0	0.9523412814352705	-0.9036405631871266	0.0	0.9079333219073398	-0.8964843901733647	0.0	0.9337966650013149	-0.6271999529045087	0.0	0.9361067806368212	-0.7528337319414568	0.0	0.9261222173774492	-0.8678970414439335	0.0	0.9682024380976287	-0.885701591770309	0.0	0.9646778762099684	-0.8818694001953687	0.0	0.9152168754895009	-0.8869087806941105	0.0	0.9438889226488862	-0.45894683071148235	0.0	0.9666689662688135	-0.372060793461627	0.0	0.9837869831932201	-0.4256701424317073	0.0	0.9401049778095506	-0.47662654637370033	0.0	1.0249894449504642	-0.4986529172974963	0.0	1.0950157925591981	-0.4784467922738083	0.0	0.9351162571629767	-0.4753865659591512	0.0	1.0123362630107524	-0.4999857676784044	0.0	1.0851416454991996	-0.4806722264713907	0.0
24	0.8076923076923077	0.9290761632513004	-0.6254020921259932	0.0	0.9310259630699794	-0.6199829931100374	0.0	0.9365367912450467	-0.745044813269873	0.0	0.918435123248143	-0.8705384736262389	0.0	0.963766750125452	-0.8898275236438609	0.0	0.9527629132352639	-0.8959362691911218	0.0	0.9077837405996994	-0.8888365578508288	0.0	0.9328829264773076	-0.6183403329377338	0.0	0.9361698108396945	-0.7448704441308408	0.0	0.9258670437951914	-0.860210237465625	0.0	0.9677597591675443	-0.879510964727087	0.0	0.9648769378292915	-0.8753820314623205	0.0	0.9152115206161489	-0.8787079973048062	0.0	0.9440192173162861	-0.45149963189553804	0.0	0.9668150795496026	-0.3642000378040525	0.0	0.9838188679163995	-0.4178899364173157	0.0	0.9405451714897038	-0.46836375728079643	0.0	1.02534787356672	-0.48990124457847084	0.0	1.0955948353016902	-0.46914377986979555	0.0	0.9354944813144795	-0.46691266771600526	0.0	1.0133455295058074	-0.49030461657645613	0.0	1.0856962435755284	-0.4709344409265789	0.0
